<svg xmlns="http://www.w3.org/2000/svg" id="Layer_1" data-name="Layer 1" viewBox="0 0 245.04 267.69">
    <defs>
        <style>
            .cls-1{fill:#042b23}.cls-3{fill:none;stroke:#042b23;stroke-miterlimit:10;stroke-width:.36px}</style>
    </defs>
    <path id="Path_3006" fill="#ffb919"
        d="M138.77 3.03C47.73 27.48-27.86 36.17 9.98 193.23s233.16 25.37 234.94-29.57S229.82-21.43 138.77 3.03Z"
        data-name="Path 3006" />
    <path d="m109.08 125.87-3.89-.24v-1.38l3.89.22v1.4z" class="cls-3" />
    <path
        d="M106.74 119.39c.09 0-1.92.42-1.98 2.09s1.24 3.02 2.76 2.9 1.91-1.35 2.04-1.66l-.68-.26s-.75 1.67-2.16 1.15-1.5-2-.84-2.66 2.22-.49 2.22-.49l.02-2.33h2.11l16.35-15.03v-1.5h2.53v-3.11h1.2s-.48-2.75 2.03-2.8 2.25 3.09 2.25 3.09l1.33.07v3.19l2.53.17v1.49l15.32 16.67 1.99.04v2.38s2.27-.11 2.05 1.96-2.48 1.04-2.53 0l-.72.07s.5 1.63 1.75 1.68h-1.13l-.02 1.56h3.71v-1.36h-1.65v-.09s1.48-.38 1.7-1.67-.23-2.7-2.19-2.91v-2.39l-2.45-.06-14.87-16.17-.02-2-2.51-.15.05-3.19-1.38-.09s.07-3.04-2.95-3.15-2.86 2.69-2.86 2.69h-1.5l-.49.64-.05 2.51-1.93-.07-.57.6v1.78l-15.34 14.06-2.79-.05-.35.53v1.88Z"
        class="cls-3" />
    <path
        d="M107.13 117.07v2.23l-.35.09M128.33 97.42v3.21h-.48M125.8 100.53v2.06l-.56.4M107.97 120.02s-2.13-.6-2.51 1.81M104.8 129.71l.02 39.59H75.13M116.08 129.45v1.16s1.92-.96 3.66-.87 2.83.22 4.31 1.03v-1.1s-1.52-.87-3.99-.89-3.99.67-3.99.67ZM116.47 131.54l.11 7.88 7.28.25v-7.81l-7.39-.32z"
        class="cls-3" />
    <ellipse cx="132.52" cy="113.67" class="cls-3" rx="3.4" ry="3.5" />
    <circle cx="132.61" cy="113.67" r="2.53" class="cls-3" />
    <path
        d="m118.04 109.6-47.09-2.75v10.35l4.61.34.04 1.3s-.33.11-.33.64.44 10.23.49 10.42.17.4 1.15.4 24.57.93 24.57.93l.04 1.25 3.91-3.56.07-1.32-2.88 3.17-.55-.68-.51.68-24.79-1.15-.54-10.32c0-.2-.12-.39-.3-.49-.1-.05-.22-.07-.33.02M105.3 126.68l-3.19 3.42"
        class="cls-3" />
    <path
        d="M70.95 106.76v-3.02h-.22l.11-2.31-.11-1.58H69l-.25 22.18h-.72v11.32l-.08 35.75h1.25l.33-53.15 1.5.11"
        class="cls-3" />
    <path
        d="M75.81 129.91 75.68 169l-.61.3H69.1M70.85 103.74h-1.67s-.29-.05-.29.28M68.91 101.41h1.94M68.91 110.16h2.14M128.79 130.02v1.09s2.42-.83 3.97-.76c1.55.07 4.01.98 4.01.98v-1.07s-2.18-.94-3.99-.92-3.99.68-3.99.68ZM140.98 130.63v1.06s2.36-.81 3.87-.74 3.91.96 3.91.96v-1.04s-2.13-.92-3.89-.9-3.89.67-3.89.67Z"
        class="cls-3" />
    <path d="M118.8 123h.97v.97h-.97zM132.03 123.78h1.17v.97h-1.17zM145.26 124.36h.97v.78h-.97z"
        class="cls-1" />
    <path d="M158.29 128.35v41.14l-52.72-.37-.16-43.3" class="cls-3" />
    <path
        d="M69.49 147.9h6.02l.4-1.17 29 .82.76-.66 52.81 1.4v.62l21.6.54v-.89l-21.6-.46v-.74l-52.81-1.56-.94.58-28.89-.58-.55 1.32-5.8-.08M83.01 132.78v7.19l15.17.44v-7.13l-15.17-.5zM86.9 132.98v7.01M88.75 133.04v7M92.44 133.12v7.26M96.14 133.26v7M120.18 131.81v7.73M118.56 131.78v7.72M121.77 131.97v7.73M117.06 131.68l.06 7.73M123.3 131.88v7.72M85.15 132.98v7.01"
        class="cls-3" />
    <path
        d="m82.96 137.91 7.73.29 7.54.29M117.02 137.42l3.26.16 3.18.15M117.01 134.42l3.26.15 3.18.16M82.95 157.25l7.73.22 7.54.21M82.86 159.78l7.73.22 7.55.21M82.97 135.37l7.73.29 7.54.3M90.6 140.36l.01-7.2M94.29 140.38v-7.26M82.97 140.01l-.15.05v.99l15.56.36v-.94h-.1M162.45 135.87v6.55l13.84.41v-6.51l-13.84-.45zM166 136.06v6.38M167.69 136.11v6.38M171.06 136.18v6.62M174.43 136.31v6.38M164.4 136.06v6.38"
        class="cls-3" />
    <path
        d="m162.41 140.55 7.05.28 6.87.26M162.41 138.13l7.05.27 6.87.27M169.37 142.78l.01-6.56M172.74 142.8v-6.62M162.42 142.46l-.15.05v.9l14.2.33v-.85h-.09M82.97 154.63l.07 7.37 15.18.3-.08-7.32-15.17-.35zM86.86 154.59l.07 7.45M85.01 154.61l.07 7.45M88.71 154.76l.07 7.45M92.41 154.85l.07 7.46M96.05 154.82l.07 7.45M90.63 162.2l-.07-7.39M94.32 162.16l-.07-7.2M83 162.08l-.15.06.01 1.02 15.56.21-.01-.96h-.09M162.22 157.78l7.38.21 7.2.21M162.17 160.42l7.38.21 7.2.21"
        class="cls-3" />
    <path
        d="m162.24 155.51.07 7.03 14.48.29-.07-6.99-14.48-.33zM165.95 155.47l.08 7.11M164.19 155.49l.07 7.11M167.72 155.63l.07 7.11M171.25 155.72l.07 7.11M174.72 155.69l.08 7.11M169.55 162.73l-.06-7.05M173.08 162.69l-.07-6.86M162.28 162.62l-.15.06.01.97 14.85.2-.01-.92h-.09M80.62 114.86s-.58-.04-.26-.65c0 0-.33-.21 1.44-.12 1.77.08 2.61-.05 2.69.44s-.25.56-.25.56v-.15l-3.62-.08ZM80.81 115.27l-.26.73h-.44l.06 2.59 4.79.11v-.48l-.41-.02-.18-1.94v-.94M83.98 115.32v3.11M80.87 115.32v3.11"
        class="cls-3" />
    <path
        d="m168.76 112.45-.08-2.31.58-.25s-.03-3.05 1.18-3.41 1.21 1.7 1.21 1.7l.43-.22.14 2.61.91-.5.1 1.6 3.16 4.75 1.15-.63-.03 2.25s.98-.05.95 1.56c-.03 1.61-.53 2.06-.53 2.06l.38-.08v.88l-3.82-.19.03 1.57 6.72 9.66.12 2.23-1.03-1.46h-.47l.53 35.4-22.02-.17"
        class="cls-3" />
    <path
        d="m174.88 122.42-.86.51.86 1.11M179.82 131.55l-.15-8.33.51-.24-.04-1.3-.5-.02s1.52-3.03-.55-3.96l-.02-1.89-1.49-.11-2.9-4.03-.05-1.61-.99-.02-.02-2.09-.6-.02s.09-1.39-.94-1.47-1.54-.02-1.54-.02M172.2 108.02l.97.01M173.73 110.05l-.52-.01M169.31 109.9l.14 2.61M176.38 116.49l.05 4.28"
        class="cls-3" />
    <path
        d="m170.1 112.54.39-.64 7.22 10.66-.66-.03-6.48-9.91-23.86-1.37M158.43 133.18l2.67 1.5-2.75-2.97M161.24 134.83l-.03-1.36 18.7.93"
        class="cls-3" />
    <path
        d="m158.39 130.56 2.67 2.56 20.07.74-.11.62-.65.01M158.43 129.55l3.4 3.52M180.47 133.62l-6.7-10.66.25-.03M72.12 106.91l.28 10.32M116.21 139.41v.97l8.01.24v-.96l-8.01-.25zM129.14 132.17l.1 7.69 7.11.24v-7.62l-7.21-.31zM132.76 132.43v7.54M131.18 132.4v7.54M134.31 132.58v7.55M129.71 132.3l.06 7.55M135.81 132.49v7.55"
        class="cls-3" />
    <path
        d="m129.65 137.65 3.18.15 3.11.14M129.66 135.07l3.19.15 3.1.15M128.89 139.85v.95l7.82.23-.01-.93-7.81-.25zM141.36 132.71l.1 7.51 6.94.24v-7.44l-7.04-.31zM144.9 132.97v7.36M143.36 132.94v7.36M146.41 133.12v7.37M141.92 132.85l.06 7.36M147.87 133.03v7.37"
        class="cls-3" />
    <path
        d="m141.86 137.98 3.1.15 3.03.14M141.87 135.35l3.11.15 3.03.14M141.11 140.21v.93l7.64.22-.01-.91-7.63-.24zM116.92 153.94l.19 7.87 7.28.18-.08-7.81-7.39-.24zM120.64 154.17l.07 7.72M119.02 154.15l.08 7.73M122.22 154.31l.08 7.73M117.51 154.07l.14 7.73M123.75 154.2l.08 7.73"
        class="cls-3" />
    <path
        d="m117.5 159.9 3.26.13 3.19.12M117.51 158.13l3.26.12 3.18.12M117.48 156.25l3.26.12 3.19.12M116.74 161.8l.01.98 8.02.15-.02-.95-8.01-.18zM129.59 154.43l.19 7.69 7.11.18-.08-7.63-7.22-.24zM133.22 154.66l.08 7.54M131.64 154.64l.08 7.55M134.77 154.8l.08 7.55M130.17 154.56l.13 7.55M136.27 154.69l.07 7.55"
        class="cls-3" />
    <path
        d="m130.16 160.26 3.19.12 3.11.12M130.17 158.53l3.18.12 3.11.11M130.14 156.69l3.19.12 3.11.12M129.42 162.12l.01.95 7.83.15-.02-.93-7.82-.17zM141.82 154.85l.18 7.51 6.94.17-.07-7.44-7.05-.24zM145.36 155.07l.08 7.37M143.82 155.06l.07 7.36M146.87 155.21l.08 7.37M142.38 154.98l.13 7.37M148.33 155.11l.08 7.36"
        class="cls-3" />
    <path
        d="m142.38 160.54 3.1.12 3.04.11M142.38 158.85l3.11.12 3.03.11M142.36 157.06l3.1.11 3.04.12M141.65 162.35l.01.93 7.64.15-.02-.91-7.63-.17z"
        class="cls-3" />
</svg>