<?xml version="1.0" encoding="UTF-8"?>
<svg xmlns="http://www.w3.org/2000/svg" viewbox="0 0 47.225 35.483">
  <g fill="#fff">
    <path d="m44.253 17.239-3.712-9.146a7.736 7.736 0 0 0-2.521-3.279l-.5-1.17a5.84 5.84 0 0 0-11.251 2.2V7.9a7.7 7.7 0 0 0-.657 3.111v11.146h-4.006V11.004a7.7 7.7 0 0 0-.657-3.11V5.84a5.84 5.84 0 0 0-11.248-2.2l-.5 1.177A7.738 7.738 0 0 0 6.68 8.096l-3.717 9.143a10.8 10.8 0 1 0 18.357 9.874h4.571a10.8 10.8 0 1 0 18.362-9.874Zm-4.749-8.726 2.912 7.175a10.793 10.793 0 0 0-15.685 4.2v-8.884a6.633 6.633 0 0 1 10.522-5.366l.01.007a6.62 6.62 0 0 1 2.241 2.868ZM27.389 5.84a4.72 4.72 0 0 1 9.015-1.958 7.741 7.741 0 0 0-9.015 2.2Zm-12.28-4.721a4.727 4.727 0 0 1 4.722 4.721v.237a7.741 7.741 0 0 0-9.015-2.2 4.7 4.7 0 0 1 4.294-2.763ZM7.716 8.514a6.616 6.616 0 0 1 2.239-2.867l.018-.013a6.633 6.633 0 0 1 10.515 5.37v8.884a10.793 10.793 0 0 0-15.685-4.2Zm3.085 25.845a9.688 9.688 0 1 1 9.688-9.688 9.688 9.688 0 0 1-9.688 9.688Zm10.806-8.365v-2.72h4.006v1.394a10.79 10.79 0 0 0 .084 1.324Zm14.812 8.362a9.7 9.7 0 0 1-9.555-8.1v-3.174a9.688 9.688 0 1 1 9.555 11.275Z" data-name="Path 6"></path>
    <path d="M36.424 17.139a7.531 7.531 0 1 0 7.531 7.531 7.531 7.531 0 0 0-7.531-7.531Zm0 13.945a6.413 6.413 0 1 1 6.413-6.414 6.413 6.413 0 0 1-6.413 6.414Z" data-name="Path 7"></path>
    <path d="M10.801 17.139a7.531 7.531 0 1 0 7.531 7.531 7.531 7.531 0 0 0-7.531-7.531Zm0 13.945a6.413 6.413 0 1 1 6.413-6.414 6.413 6.413 0 0 1-6.413 6.414Z" data-name="Path 8"></path>
  </g>
</svg>
