<?xml version="1.0" encoding="UTF-8"?>
<svg xmlns="http://www.w3.org/2000/svg" viewbox="0 0 40.77 40.769">
  <g fill="#fff" data-name="001---School">
    <path d="M39.41 36.817V21.744h.679a.679.679 0 0 0 .531-1.1l-5.028-6.285A2.03 2.03 0 0 0 34 13.59h-4.782v-3.116l.2.2a.68.68 0 0 0 .961-.961L20.865.2a.679.679 0 0 0-.965 0l-9.509 9.512a.68.68 0 0 0 .961.961l.2-.2v3.117H6.768a2.029 2.029 0 0 0-1.591.765L.149 20.639a.679.679 0 0 0 .531 1.1h.679v15.078a2.034 2.034 0 0 0 .679 3.952H38.73a2.034 2.034 0 0 0 .679-3.952ZM26.5 27.179h-5.436v-2.718h3.4A2.038 2.038 0 0 1 26.5 26.5Zm-6.795 0h-5.436V26.5a2.038 2.038 0 0 1 2.038-2.038h3.4Zm-5.436 1.359H19.7v8.154h-5.431Zm6.795 0H26.5v8.154h-5.436Zm6.795-.679V26.5a3.4 3.4 0 0 0-3.4-3.4h-8.152a3.4 3.4 0 0 0-3.4 3.4v10.192H2.718V21.744h35.333v14.948H27.859ZM34 14.949a.679.679 0 0 1 .531.255l4.145 5.181h-9.458v-5.436ZM20.384 1.64l7.474 7.474v11.27H12.91V9.115ZM6.238 15.2a.679.679 0 0 1 .531-.255h4.783v5.436H2.093ZM38.73 39.41H2.038a.68.68 0 1 1 0-1.359H38.73a.68.68 0 0 1 0 1.359Z"></path>
    <path d="M20.384 19.026a6.115 6.115 0 1 0-6.115-6.116 6.115 6.115 0 0 0 6.115 6.116Zm0-10.872a4.756 4.756 0 1 1-4.756 4.756 4.756 4.756 0 0 1 4.756-4.756Z" data-name="Shape"></path>
    <path d="M21.263 14.749a.68.68 0 0 0 .961-.961l-1.16-1.16v-1.757a.68.68 0 1 0-1.359 0v2.038a.679.679 0 0 0 .2.48ZM8.154 23.102a2.718 2.718 0 0 0-2.718 2.718v6.795a1.359 1.359 0 0 0 1.359 1.359h2.718a1.359 1.359 0 0 0 1.359-1.359V25.82a2.718 2.718 0 0 0-2.718-2.718Zm0 1.359a1.359 1.359 0 0 1 1.359 1.359v1.359H6.795V25.82a1.359 1.359 0 0 1 1.359-1.359Zm-1.359 8.154v-4.077h2.718v4.077ZM32.616 23.102a2.718 2.718 0 0 0-2.718 2.718v6.795a1.359 1.359 0 0 0 1.359 1.359h2.718a1.359 1.359 0 0 0 1.359-1.359V25.82a2.718 2.718 0 0 0-2.718-2.718Zm0 1.359a1.359 1.359 0 0 1 1.359 1.359v1.359h-2.718V25.82a1.359 1.359 0 0 1 1.359-1.359Zm-1.359 8.154v-4.077h2.718v4.077Z" data-name="Shape"></path>
  </g>
</svg>
