<?xml version="1.0" encoding="UTF-8"?>
<svg xmlns="http://www.w3.org/2000/svg" viewbox="0 0 35.805 39.787">
  <g>
    <path fill="#fff" d="M19.082 29.868a.583.583 0 0 0 .583-.583v-10.88a.583.583 0 0 0-.583-.583h-2.359a.583.583 0 0 0 0 1.166h1.776v10.3a.583.583 0 0 0 .583.58ZM35.805 5.581a2.921 2.921 0 0 0-2.918-2.918h-2.492v-.891A1.774 1.774 0 0 0 28.622 0h-.268a1.774 1.774 0 0 0-1.772 1.772v.891H9.222v-.891A1.774 1.774 0 0 0 7.45 0h-.268A1.774 1.774 0 0 0 5.41 1.772v.891H2.918A2.921 2.921 0 0 0 0 5.581v25.208a.583.583 0 0 0 1.166 0V12.158h28.063a.583.583 0 0 0 0-1.166H1.166V5.581a1.754 1.754 0 0 1 1.752-1.752H5.41v1.714a1.774 1.774 0 0 0 1.772 1.772.583.583 0 1 0 0-1.166.607.607 0 0 1-.607-.607V3.829h20.008v1.714a1.774 1.774 0 0 0 1.772 1.772.583.583 0 0 0 0-1.166.607.607 0 0 1-.607-.607V3.829h5.138a1.754 1.754 0 0 1 1.752 1.752v5.411H31.56a.583.583 0 1 0 0 1.166h3.079v15.085a1.332 1.332 0 0 1-1.33 1.331h-3.89a2.5 2.5 0 0 0-2.5 2.5v3.89a1.332 1.332 0 0 1-1.33 1.331H2.918a1.754 1.754 0 0 1-1.752-1.752V33.12a.583.583 0 0 0-1.166 0v3.753a2.917 2.917 0 0 0 2.914 2.914h29.977a2.917 2.917 0 0 0 2.914-2.914ZM8.056 2.663H6.574v-.891a.607.607 0 0 1 .607-.607h.268a.607.607 0 0 1 .607.607Zm21.173 0h-1.481v-.891a.607.607 0 0 1 .607-.607h.268a.607.607 0 0 1 .607.607Zm-1.142 32.3V31.07a1.332 1.332 0 0 1 1.33-1.331h3.89a2.492 2.492 0 0 0 .588-.07l-5.879 5.879a2.489 2.489 0 0 0 .072-.588Zm6.551 1.913a1.75 1.75 0 0 1-1.748 1.748H2.914a1.75 1.75 0 0 1-1.748-1.748 2.9 2.9 0 0 0 1.752.586h23.63a2.9 2.9 0 0 0 2.063-.855l6.027-6.027v6.3Z" data-name="Path 9"></path>
  </g>
</svg>
