<?xml version="1.0" encoding="UTF-8"?>
<svg xmlns="http://www.w3.org/2000/svg" viewbox="0 0 42.705 48.215">
  <g fill="#fff" data-name="Group 37">
    <path d="M17.909 20.663A10.332 10.332 0 1 1 28.24 10.332a10.332 10.332 0 0 1-10.331 10.331Zm0-19.286a8.954 8.954 0 1 0 8.954 8.954 8.954 8.954 0 0 0-8.954-8.953Z" data-name="Path 22"></path>
    <path d="M35.128 48.215a7.577 7.577 0 1 1 7.577-7.577 7.577 7.577 0 0 1-7.577 7.577Zm0-13.776a6.2 6.2 0 1 0 6.2 6.2 6.2 6.2 0 0 0-6.2-6.2Z" data-name="Path 23"></path>
    <path d="M28.24 41.327H.689A.689.689 0 0 1 0 40.641v-8.268a10.343 10.343 0 0 1 10.332-10.332.689.689 0 0 1 .487.2l7.09 7.09L25 22.241a.689.689 0 0 1 .487-.2 10.343 10.343 0 0 1 10.33 10.332v1.378h-1.378v-1.378a8.965 8.965 0 0 0-8.673-8.95l-7.37 7.37a.689.689 0 0 1-.974 0l-7.37-7.37a8.965 8.965 0 0 0-8.675 8.95v7.577H28.24Z" data-name="Path 24"></path>
    <path d="M30.306 39.949h9.643v1.378h-9.643Z" data-name="Path 25"></path>
    <path d="M34.439 35.817h1.378v9.643h-1.378Z" data-name="Path 26"></path>
  </g>
</svg>
